HIERARCHY
ROOT Hips
{
	OFFSET 0.00000 0.00000 0.00000
	CHANNELS 6 Xposition Yposition Zposition Yrotation Zrotation Xrotation 
	JOINT Lumbar
	{
		OFFSET 0 0 0
		CHANNELS 3 Zrotation Xrotation Yrotation
		JOINT Neck
		{
			OFFSET 0.00 0.2701 0.00
			CHANNELS 3 Zrotation Xrotation Yrotation
			End Site
			{
				OFFSET 0.00 0.1379 0.00
			}
		}
		JOINT RightShoulder
		{
			OFFSET 0.0119 0.2289 0.1181
			CHANNELS 3 Zrotation Xrotation Yrotation
			JOINT RightElbow
			{
				OFFSET 0.00 -0.1475 0.00
				CHANNELS 2 Zrotation Yrotation
				JOINT RightWrist
				{
					OFFSET 0.00 -0.1605 0.00
					CHANNELS 2 Zrotation Xrotation
					End Site
					{
						OFFSET 0.0040 -0.1068 0.0006
					}
				}
			}
		}
		JOINT LeftShoulder
		{
			OFFSET 0.0119 0.2289 -0.1181
			CHANNELS 3 Zrotation Xrotation Yrotation
			JOINT LeftElbow
			{
				OFFSET 0.00 -0.1475 0.00
				CHANNELS 2 Zrotation Yrotation
				JOINT LeftWrist
				{
					OFFSET 0.00 -0.1605 0.00
					CHANNELS 2 Zrotation Xrotation
					End Site
					{
						OFFSET 0.0040 -0.1068 -0.0006
					}
				}
			}
		}
	}
	JOINT RightHip
	{
		OFFSET 0.0316 -0.0424 0.0458
		CHANNELS 3 Zrotation Xrotation Yrotation
		JOINT RightKnee
		{
			OFFSET 0.00 -0.2438 0.00
			CHANNELS 1 Zrotation
			JOINT RightAnkle
			{
				OFFSET 0.00 -0.2449 0.00
				CHANNELS 3 Zrotation Xrotation Yrotation
				End Site
				{
					OFFSET 0.1237 -0.0542 0.0051
				}
			}
		}
	}
	JOINT LeftHip
	{
		OFFSET 0.0316 -0.0424 -0.0458
		CHANNELS 3 Zrotation Xrotation Yrotation
		JOINT LeftKnee
		{
			OFFSET 0.00 -0.2438 0.00
			CHANNELS 1 Zrotation
			JOINT LeftAnkle
			{
				OFFSET 0.00 -0.2449 0.00
				CHANNELS 3 Zrotation Xrotation Yrotation
				End Site
				{
					OFFSET 0.1237 -0.0542 -0.0051
				}
			}
		}
	}
}
MOTION
Frames: 30
Frame Time: 0.02
-0.01077 0.18844 -0.20369 221.74309 0 4.33159 -58.06927 1.65882 51.78166 -66.57757 38.96076 14.5494 144.99699 -42.90265 46.50848 42.63745 139.69529 -57.69546 -11.39159 145.70226 -15.17647 -43.06603 23.3267 -78.40787 -11.67387 4.29927 -17.87628 -17.67747 0.39161 -95.17292 -34.56648 -1.44866 -2.35405 34.1848 -13.69367 20.57069 -147.07826 22.28798 36.09615 17.55869
-0.01075 0.18843 -0.20368 221.74544 0 4.33126 -58.06927 1.66346 51.78449 -66.57756 38.96075 14.59265 145.03017 -42.86269 46.49444 42.561 139.62138 -57.73009 -11.36328 145.79049 -15.16773 -43.02309 23.27803 -78.77935 -11.2116 4.09473 -17.87628 -17.68715 0.3942 -95.17781 -34.55527 -1.44679 -2.31891 34.18204 -13.69367 20.56944 -147.07826 22.28798 36.09615 17.55507
-0.01075 0.18844 -0.20368 221.7468 0 4.32918 -58.06927 1.66964 51.78959 -66.57756 38.96076 14.65357 145.10244 -42.78597 46.46127 42.42302 139.4683 -57.76949 -11.30958 145.99651 -15.20926 -43.2564 23.03211 -79.27835 -10.9419 3.83233 -17.87628 -17.70403 0.39699 -95.17911 -34.53866 -1.44744 -2.26467 34.18231 -13.69367 20.57009 -147.07826 22.28798 36.09615 17.55757
-0.01074 0.18844 -0.20368 221.74852 0 4.32799 -58.06927 1.67486 51.79345 -66.57756 38.96075 14.70353 145.15482 -42.7285 46.43805 42.31867 139.35629 -57.80333 -11.26917 146.13912 -15.22523 -43.34921 22.88848 -79.7129 -10.58908 3.60432 -17.87628 -17.71708 0.39965 -95.18228 -34.52472 -1.44656 -2.22093 34.18094 -13.69367 20.56997 -147.07826 22.28798 36.09615 17.55743
-0.01072 0.18845 -0.20367 221.7499 0 4.32615 -58.06927 1.68006 51.79806 -66.57756 38.96075 14.76551 145.21188 -42.66228 46.40916 42.19926 139.21477 -57.84154 -11.21807 146.31573 -15.24917 -43.48644 22.7047 -80.18496 -10.20559 3.34241 -17.87627 -17.73398 0.40273 -95.18422 -34.50918 -1.44816 -2.16683 34.18067 -13.69367 20.56983 -147.07826 22.28798 36.09615 17.55733
-0.01072 0.18845 -0.20367 221.75218 0 4.32538 -58.06927 1.68629 51.80172 -66.57756 38.96075 14.80696 145.27334 -42.60298 46.38795 42.08575 139.12643 -57.88481 -11.18743 146.45308 -15.26987 -43.60441 22.55209 -80.60289 -9.93478 3.13696 -17.87627 -17.74365 0.40484 -95.18797 -34.49611 -1.4448 -2.13131 34.17888 -13.69367 20.56996 -147.07826 22.28798 36.09615 17.55828
-0.01073 0.18842 -0.20367 221.75532 0 4.32746 -58.06927 1.6925 51.80188 -66.57756 38.96075 14.78512 145.29479 -42.59568 46.38876 42.10232 139.10553 -57.81882 -11.18032 146.44552 -15.26842 -43.59625 22.53998 -80.87062 -9.94823 3.10541 -17.87627 -17.73601 0.4047 -95.1974 -34.48904 -1.42793 -2.14537 34.17155 -13.69367 20.57137 -147.07826 22.28798 36.09615 17.56142
-0.01074 0.18838 -0.20367 221.75978 0 4.33079 -58.06927 1.70023 51.80107 -66.57756 38.96075 14.74245 145.32524 -42.59335 46.39846 42.11326 139.15431 -57.77457 -11.20002 146.39679 -15.26263 -43.56286 22.56303 -81.07332 -10.06688 3.13193 -17.87627 -17.71997 0.40348 -95.20883 -34.48507 -1.40571 -2.18017 34.16269 -13.69367 20.57276 -147.07826 22.28798 36.09615 17.56519
-0.01076 0.18835 -0.20367 221.76501 0 4.33395 -58.06927 1.70911 51.80095 -66.57756 38.96076 14.71086 145.38231 -42.57158 46.40687 42.05584 139.24215 -57.80777 -11.23562 146.37294 -15.25992 -43.54707 22.56415 -81.28401 -10.12582 3.1294 -17.87628 -17.70463 0.40242 -95.21953 -34.48117 -1.38528 -2.2101 34.15492 -13.69367 20.57342 -147.07826 22.28798 36.09615 17.56802
-0.01077 0.18831 -0.20366 221.76462 0 4.33545 -58.06927 1.71054 51.79991 -66.57756 38.96075 14.67313 145.31985 -42.61619 46.40384 42.27592 139.04892 -57.49658 -11.15983 146.32711 -15.25422 -43.51439 22.5839 -81.58791 -10.24053 3.13623 -17.87628 -17.70235 0.40271 -95.2294 -34.47091 -1.36765 -2.22051 34.14562 -13.69367 20.57721 -147.07826 22.28798 36.09615 17.57373
-0.01078 0.18828 -0.20366 221.77599 0 4.34063 -58.06927 1.72748 51.80049 -66.57757 38.96076 14.64296 145.49699 -42.53029 46.42597 41.94229 139.43326 -57.87755 -11.31264 146.31568 -15.25311 -43.50774 22.5755 -81.68355 -10.2628 3.13793 -17.87628 -17.67126 0.39998 -95.24144 -34.47459 -1.34289 -2.27622 34.13906 -13.69367 20.57456 -147.07826 22.28798 36.09615 17.57364
-0.01081 0.18827 -0.20368 221.82206 0 4.35658 -58.06927 1.79005 51.80615 -66.57759 38.96082 14.6392 146.42983 -42.02972 46.52459 39.86398 141.61872 -60.4294 -12.17894 146.40983 -15.2654 -43.57616 22.48279 -81.19199 -9.99505 3.1135 -17.87628 -17.55827 0.38884 -95.25966 -34.51719 -1.29984 -2.45696 34.14072 -13.69367 20.55314 -147.07826 22.28798 36.09615 17.55631
-0.01083 0.18827 -0.2037 221.87948 0 4.37604 -58.06927 1.86764 51.81341 -66.57762 38.9609 14.64364 147.58676 -41.40693 46.64674 37.26635 144.34492 -63.63138 -13.2592 146.53935 -15.28236 -43.67141 22.36094 -80.49685 -9.63245 3.08206 -17.87628 -17.41733 0.37477 -95.2799 -34.5735 -1.24986 -2.68176 34.14511 -13.69367 20.52543 -147.07826 22.28798 36.09615 17.53329
-0.01086 0.18827 -0.20372 221.93002 0 4.39335 -58.06927 1.9362 51.81968 -66.57764 38.96098 14.64395 148.57595 -40.87612 46.75206 35.05315 146.67351 -66.35714 -14.18181 146.65178 -15.29702 -43.75427 22.25224 -79.91363 -9.31698 3.05229 -17.87628 -17.29207 0.36229 -95.29879 -34.62285 -1.20287 -2.88316 34.14806 -13.69367 20.50124 -147.07826 22.28798 36.09615 17.51353
-0.01089 0.18827 -0.20374 221.98779 0 4.41309 -58.06927 2.01389 51.82701 -66.57767 38.96106 14.64514 149.83781 -40.19493 46.88314 32.22594 149.63259 -69.83126 -15.3552 146.76717 -15.31194 -43.83496 22.14568 -79.24959 -8.98407 3.02971 -17.87628 -17.15408 0.34868 -95.31956 -34.6755 -1.15601 -3.09942 34.15183 -13.69367 20.47422 -147.07826 22.28798 36.09615 17.49091
-0.01091 0.18826 -0.20376 222.03329 0 4.42854 -58.06927 2.0764 51.83255 -66.57769 38.96112 14.64682 150.59222 -39.79375 46.96662 30.53825 151.42232 -71.92031 -16.06325 146.88526 -15.32796 -43.92972 22.02652 -78.70225 -8.66884 2.99122 -17.87628 -17.0359 0.33674 -95.33688 -34.72435 -1.10776 -3.29505 34.15452 -13.69367 20.45163 -147.07826 22.28798 36.09615 17.47293
-0.01093 0.18825 -0.20376 222.041 0 4.43151 -58.06927 2.09097 51.83264 -66.5777 38.96113 14.64719 149.82646 -40.23122 46.90764 32.26415 149.70852 -69.85569 -15.37707 147.00318 -15.34156 -44.03213 21.88617 -78.56472 -8.37823 2.89673 -17.87628 -16.98088 0.33018 -95.34411 -34.7607 -1.05321 -3.422 34.15399 -13.69367 20.4427 -147.07826 22.28798 36.09615 17.46868
-0.01094 0.18824 -0.20376 222.03617 0 4.42999 -58.06927 2.09018 51.83092 -66.57769 38.96112 14.64802 148.55397 -40.94812 46.80081 35.12915 146.82467 -66.40549 -14.22537 147.12293 -15.35683 -44.15258 21.7326 -78.54646 -8.11587 2.78812 -17.87628 -16.9465 0.32539 -95.34781 -34.7925 -0.99817 -3.52681 34.15222 -13.69367 20.43844 -147.07826 22.28798 36.09614 17.4693
-0.01095 0.18823 -0.20376 222.03782 0 4.43037 -58.06927 2.09797 51.83014 -66.57769 38.96112 14.6491 147.55574 -41.51366 46.71937 37.38027 144.57046 -63.7021 -13.32436 147.24096 -15.37426 -44.28092 21.58091 -78.4472 -7.87252 2.69552 -17.87628 -16.90166 0.31977 -95.35321 -34.82545 -0.94628 -3.64218 34.15071 -13.69367 20.43212 -147.07826 22.28799 36.09616 17.46808
-0.01096 0.18822 -0.20377 222.03662 0 4.43146 -58.06927 2.09958 51.8289 -66.5777 38.96113 14.64834 146.38062 -42.17752 46.62362 40.01742 141.92513 -60.53052 -12.26689 147.36264 -15.37987 -44.34188 21.4464 -78.44761 -7.49603 2.56481 -17.87628 -16.86041 0.31417 -95.35832 -34.86267 -0.88233 -3.75672 34.15048 -13.69367 20.42538 -147.07826 22.28799 36.09616 17.4654
-0.01097 0.18822 -0.20376 222.03816 0 4.42996 -58.06927 2.11015 51.82816 -66.57769 38.96112 14.65163 145.44952 -42.70493 46.54571 42.13034 139.80539 -57.9921 -11.42039 147.47835 -15.41002 -44.54758 21.27242 -78.27934 -7.39906 2.50696 -17.87628 -16.81694 0.30898 -95.36313 -34.88984 -0.84282 -3.8675 34.14735 -13.69367 20.42066 -147.07826 22.28796 36.09608 17.46662
-0.01097 0.18822 -0.20373 222.05065 0 4.42237 -58.06927 2.14944 51.82943 -66.57767 38.96106 14.66437 145.32543 -42.78425 46.53121 42.4973 139.45641 -57.57582 -11.28307 147.56233 -15.51104 -45.14357 21.00151 -77.54843 -8.11707 2.68267 -17.87628 -16.76266 0.30471 -95.36833 -34.88938 -0.87672 -3.97003 34.13576 -13.69369 20.42056 -147.07828 22.28803 36.0963 17.48006
-0.01097 0.18823 -0.20369 222.06612 0 4.4123 -58.06927 2.198 51.83123 -66.57764 38.96098 14.68152 145.46174 -42.71771 46.53577 42.30342 139.66805 -57.83435 -11.37078 147.6425 -15.63597 -45.88455 20.69043 -76.65674 -9.10686 2.92763 -17.87628 -16.70561 0.30079 -95.37325 -34.879 -0.93426 -4.06991 34.12141 -13.69366 20.42231 -147.07825 22.28793 36.09597 17.4964
-0.01097 0.18824 -0.20365 222.08004 0 4.40337 -58.06927 2.24231 51.83262 -66.57762 38.9609 14.69761 145.47148 -42.72054 46.52981 42.38214 139.5983 -57.75838 -11.34592 147.73439 -15.74763 -46.56334 20.39136 -75.88486 -9.93943 3.12092 -17.87628 -16.64961 0.2966 -95.37808 -34.87384 -0.97713 -4.17297 34.10881 -13.69367 20.42312 -147.07826 22.28796 36.09609 17.51024
-0.01097 0.18824 -0.20362 222.09467 0 4.39428 -58.06927 2.28689 51.83462 -66.57759 38.96082 14.70946 145.49775 -42.72022 46.52989 42.42642 139.59958 -57.75374 -11.34806 147.78562 -15.86961 -47.2306 20.11576 -74.92214 -10.91385 3.39566 -17.87628 -16.59482 0.29291 -95.38382 -34.86583 -1.03627 -4.26706 34.09412 -13.69375 20.42457 -147.07832 22.28824 36.09698 17.5309
-0.01096 0.18825 -0.20357 222.10828 0 4.38495 -58.06927 2.33249 51.83558 -66.57757 38.96076 14.73153 145.55883 -42.68798 46.52273 42.39323 139.60227 -57.77653 -11.35393 147.91882 -15.97562 -47.95176 19.78493 -74.31409 -11.65876 3.52156 -17.87628 -16.53706 0.28827 -95.3875 -34.86107 -1.06749 -4.37936 34.08306 -13.69348 20.425 -147.0781 22.28735 36.09409 17.53588
-0.01093 0.18831 -0.20347 222.12154 0 4.37577 -58.06927 2.38473 51.83259 -66.57756 38.96075 14.77799 145.64763 -42.60373 46.48915 42.28856 139.46721 -57.73421 -11.31265 148.29482 -16.03293 -48.82331 19.2856 -74.7519 -11.68821 3.18346 -17.87628 -16.46815 0.28067 -95.38656 -34.87054 -1.01305 -4.54321 34.08344 -13.69391 20.42258 -147.07851 22.28877 36.09873 17.51568
-0.01089 0.18837 -0.20336 222.1328 0 4.36633 -58.06927 2.43592 51.8287 -66.57756 38.96075 14.83529 145.76601 -42.4908 46.44806 42.11837 139.3205 -57.6981 -11.27006 148.75073 -16.07312 -49.73724 18.73687 -75.54682 -11.48004 2.69973 -17.87628 -16.39731 0.27217 -95.38329 -34.88271 -0.93033 -4.7252 34.08743 -13.69372 20.41899 -147.07822 22.28813 36.09661 17.47659
-0.01086 0.18843 -0.20325 222.14337 0 4.357 -58.06927 2.48452 51.8259 -66.57756 38.96075 14.88916 145.87631 -42.38947 46.41198 41.96935 139.18841 -57.6508 -11.23204 149.15964 -16.12035 -50.60717 18.22787 -76.15951 -11.39049 2.30675 -17.87628 -16.32909 0.26417 -95.38056 -34.89235 -0.86223 -4.89887 34.0893 -13.69266 20.41557 -147.07751 22.28468 36.0854 17.43306
-0.01082 0.18848 -0.20314 222.16217 0 4.34797 -58.06927 2.54916 51.82037 -66.57756 38.96075 14.93601 145.97219 -42.28978 46.37037 41.83884 139.03736 -57.66352 -11.18504 149.61277 -16.17153 -51.58598 17.6449 -76.84973 -11.26545 1.81354 -17.87628 -16.25177 0.25562 -95.38041 -34.90884 -0.787 -5.07378 34.09311 -13.69628 20.41357 -147.08052 22.29652 36.12401 17.44238
